<svg width="32" height="32" viewBox="0 0 32 32" fill="none" xmlns="http://www.w3.org/2000/svg">
<path d="M9 10.5858C9 10.851 9.10536 11.1054 9.29289 11.2929L13.7071 15.7071C13.8946 15.8946 14 16.149 14 16.4142V22.8382C14 22.9125 14.0782 22.9609 14.1447 22.9276L17.4472 21.2764C17.786 21.107 18 20.7607 18 20.382V16.4142C18 16.149 18.1054 15.8946 18.2929 15.7071L22.7071 11.2929C22.8946 11.1054 23 10.851 23 10.5858V9C23 8.44772 22.5523 8 22 8H10C9.44772 8 9 8.44772 9 9V10.5858Z" stroke="#0F0F0F" stroke-width="2"/>
</svg>
