<svg width="24" height="24" viewBox="0 0 24 24" fill="inherit" xmlns="http://www.w3.org/2000/svg">
<path d="M4.02698 14.1368C4.0539 14.2385 4.10076 14.3339 4.16484 14.4174C4.22892 14.5008 4.30894 14.5707 4.40025 14.623L5.92939 15.5073V17.2686C5.92939 17.481 6.01378 17.6847 6.164 17.8349C6.31422 17.9851 6.51796 18.0695 6.7304 18.0695H8.49184L9.37616 19.5993C9.48268 19.783 9.65763 19.9169 9.86271 19.9719C10.0678 20.0268 10.2863 19.9983 10.4703 19.8925L11.9995 19.009L13.5294 19.8933C13.7135 19.9991 13.932 20.0276 14.1371 19.9727C14.3421 19.9177 14.5171 19.7838 14.6236 19.6001L15.5071 18.0711H17.2686C17.481 18.0711 17.6847 17.9867 17.835 17.8365C17.9852 17.6863 18.0696 17.4826 18.0696 17.2702V15.5089L19.5987 14.6246C19.6899 14.5721 19.7698 14.5021 19.8339 14.4187C19.898 14.3352 19.945 14.24 19.9722 14.1384C19.9995 14.0367 20.0064 13.9307 19.9926 13.8264C19.9788 13.7221 19.9446 13.6216 19.8919 13.5305L19.0084 12.0007L19.8927 10.4717C19.9989 10.2877 20.0277 10.0691 19.9727 9.8639C19.9177 9.65872 19.7835 9.48378 19.5995 9.37756L18.0704 8.49331V6.73202C18.0704 6.51959 17.986 6.31586 17.8358 6.16566C17.6855 6.01545 17.4818 5.93106 17.2694 5.93106H15.5079L14.6244 4.40204C14.518 4.21832 14.3432 4.08415 14.1382 4.0288C14.0366 4.0013 13.9305 3.99422 13.8262 4.00797C13.7218 4.02172 13.6212 4.05602 13.5302 4.10889L11.9995 4.99234L10.4703 4.10809C10.3793 4.05526 10.2788 4.02091 10.1745 4.00701C10.0702 3.99311 9.9642 3.99993 9.86254 4.02709C9.76089 4.05425 9.66559 4.10122 9.58213 4.16528C9.49866 4.22935 9.42867 4.30926 9.37616 4.40044L8.49184 5.93026H6.7304C6.51796 5.93026 6.31422 6.01465 6.164 6.16486C6.01378 6.31506 5.92939 6.51879 5.92939 6.73121V8.49251L4.40025 9.37756C4.21658 9.48407 4.08265 9.65906 4.02784 9.86417C3.97303 10.0693 4.00181 10.2878 4.10788 10.4717L4.9914 12.0007L4.10708 13.5297C4.00126 13.7136 3.97246 13.9318 4.02698 14.1368Z" fill="inherit"/>
</svg>
