<svg width="16" height="16" viewBox="0 0 16 16" fill="none" xmlns="http://www.w3.org/2000/svg">
<g clip-path="url(#clip0)">
<path d="M13.5 14C6.95225 14.2344 1.7659 9.03803 1.99999 2.5C2.0415 1.3407 4.76002 1.12241 5.50386 0.925766C5.64501 0.888441 5.79127 0.901097 5.91707 0.96152C6.04287 1.02194 6.14022 1.12629 6.19208 1.25633L7.31515 4.07178C7.36312 4.19205 7.36947 4.3275 7.33325 4.45771C7.29703 4.58792 7.22019 4.70583 7.11433 4.79366L5.52147 6.11528C6.38788 8.081 7.96 9.63019 9.88467 10.4785L11.2063 8.88557C11.2941 8.77971 11.412 8.70287 11.5422 8.66665C11.6724 8.63043 11.8079 8.63678 11.9282 8.68475L14.7436 9.80784C14.8737 9.85971 14.978 9.95706 15.0384 10.0829C15.0989 10.2087 15.1115 10.3549 15.0742 10.4961C14.9111 11.1131 14.7005 13.9569 13.5 14Z" fill="#261D1D" fill-opacity="0.25"/>
</g>
<defs>
<clipPath id="clip0">
<rect width="16" height="16" fill="white"/>
</clipPath>
</defs>
</svg>
