<svg width="32" height="32" viewBox="0 0 32 32" fill="none" xmlns="http://www.w3.org/2000/svg">
<path d="M18.1 18.1L23 23L18.1 18.1ZM14.25 19.5C14.9394 19.5 15.6221 19.3642 16.2591 19.1004C16.896 18.8365 17.4748 18.4498 17.9623 17.9623C18.4498 17.4748 18.8365 16.896 19.1004 16.2591C19.3642 15.6221 19.5 14.9394 19.5 14.25C19.5 13.5606 19.3642 12.8779 19.1004 12.2409C18.8365 11.604 18.4498 11.0252 17.9623 10.5377C17.4748 10.0502 16.896 9.66347 16.2591 9.39963C15.6221 9.1358 14.9394 9 14.25 9C12.8576 9 11.5223 9.55312 10.5377 10.5377C9.55312 11.5223 9 12.8576 9 14.25C9 15.6424 9.55312 16.9777 10.5377 17.9623C11.5223 18.9469 12.8576 19.5 14.25 19.5V19.5Z" stroke="inherit" stroke-width="2"/>
</svg>
