<svg width="24" height="24" viewBox="0 0 24 24" fill="none" xmlns="http://www.w3.org/2000/svg">
<path d="M10.157 10.3105C9.71486 10.7904 9.4779 11.4242 9.49671 12.0765C9.51552 12.7287 9.78861 13.3478 10.2577 13.8014C10.7267 14.2551 11.3545 14.5073 12.0071 14.5044C12.6596 14.5014 13.2851 14.2434 13.75 13.7855" stroke="#A9A9A9" stroke-width="2" stroke-linecap="round" stroke-linejoin="round"/>
<path d="M20 20L4 4" stroke="#A9A9A9" stroke-width="2" stroke-linecap="round" stroke-linejoin="round"/>
<path fill-rule="evenodd" clip-rule="evenodd" d="M19.5208 15.2782C20.1601 14.6469 20.6848 14.0423 21.0698 13.5668C21.3091 13.2713 21.496 13.0237 21.6245 12.8479C21.6888 12.7599 21.7385 12.6898 21.773 12.6405C21.7903 12.6158 21.8037 12.5963 21.8133 12.5824L21.8247 12.5657L21.8281 12.5605L21.8293 12.5588L21.8298 12.5581L21.83 12.5578C21.83 12.5577 21.8301 12.5576 21 12L21.8301 12.5576C22.0566 12.2204 22.0566 11.7797 21.8302 11.4425L21 12C21.8302 11.4425 21.83 11.4422 21.8298 11.442L21.8294 11.4413L21.8282 11.4395L21.8247 11.4344L21.8133 11.4177C21.8038 11.4038 21.7903 11.3843 21.7731 11.3596C21.7386 11.3103 21.6888 11.2401 21.6246 11.1522C21.4961 10.9764 21.3092 10.7288 21.07 10.4333C20.5927 9.84373 19.9005 9.05563 19.0415 8.26444C17.3591 6.71494 14.8706 5 12 5C11.2891 5 10.6019 5.1059 9.9487 5.28595L9.61936 5.37672L11.2904 7.04778C11.526 7.0164 11.7626 7 12 7C14.1001 7 16.1116 8.28506 17.6866 9.73556C18.4562 10.4444 19.082 11.1563 19.5155 11.6917C19.6056 11.803 19.6871 11.9063 19.7596 12C19.6871 12.0936 19.6056 12.1969 19.5155 12.3082C19.1637 12.7426 18.6854 13.2931 18.1066 13.8639L19.5208 15.2782ZM4.47915 8.72179C3.83969 9.35308 3.31493 9.95776 2.92996 10.4333C2.69069 10.7288 2.50382 10.9764 2.37537 11.1522C2.3111 11.2402 2.26135 11.3103 2.22685 11.3597C2.2096 11.3844 2.19616 11.4039 2.18662 11.4178L2.17524 11.4345L2.17176 11.4396L2.17058 11.4414L2.17013 11.442L2.16994 11.4423C2.16985 11.4425 2.16977 11.4426 3 12L2.16977 11.4426C1.94339 11.7798 1.94341 12.2204 2.16983 12.5575L3 12C2.16983 12.5575 2.17 12.5578 2.17018 12.558L2.17063 12.5587L2.17182 12.5605L2.17529 12.5656L2.18667 12.5823C2.19622 12.5962 2.20966 12.6157 2.22691 12.6404C2.26141 12.6897 2.31117 12.7599 2.37543 12.8478C2.5039 13.0236 2.69077 13.2712 2.93004 13.5667C3.40733 14.1563 4.09947 14.9444 4.95853 15.7356C6.64094 17.2851 9.12944 19 12 19C12.7171 19 13.4095 18.8923 14.0676 18.7095L14.3801 18.6227L12.7096 16.9522C12.4741 16.9836 12.2375 17 12 17C9.89986 17 7.88836 15.7149 6.31344 14.2644C5.54384 13.5556 4.91798 12.8437 4.48445 12.3083C4.39436 12.197 4.31284 12.0937 4.24035 12C4.31282 11.9063 4.39432 11.803 4.48439 11.6917C4.83608 11.2573 5.31438 10.7068 5.89339 10.136L4.47915 8.72179Z" fill="#A9A9A9"/>
</svg>
