<svg width="24" height="24" viewBox="0 0 24 24" fill="inherit" xmlns="http://www.w3.org/2000/svg">
<path fill-rule="evenodd" clip-rule="evenodd" d="M11.9999 2C12.2999 2 12.4999 2.1 12.6999 2.3L21.3513 10.3C21.7513 10.7 21.7513 11.3 21.3513 11.7C20.9513 12.1 20.3513 12.1 19.9513 11.7V18.3C19.9513 19.8 18.7513 21 17.2513 21H6.57871C5.07871 21 3.87871 19.8 3.87871 18.3V11.7C3.47871 12.1 2.87871 12 2.47871 11.7C2.07871 11.3 2.07871 10.7 2.47871 10.3L11.1999 2.3C11.4999 2.1 11.6999 2 11.9999 2ZM5.97871 9.7V18.3C5.97871 18.7 6.27871 19 6.57871 19H8.99995V13H14.9999V19H17.3513C17.7513 19 18.0513 18.7 18.0513 18.3V9.7L11.9999 4.4L5.97871 9.7ZM12.9999 19V15H10.9999V19H12.9999Z" fill="inherit"/>
</svg>
