<svg width="32" height="32" viewBox="0 0 32 32" fill="none" xmlns="http://www.w3.org/2000/svg">
<path fill-rule="evenodd" clip-rule="evenodd" d="M8.99999 13C8.99999 9.146 12.146 6 16 6C19.854 6 23 9.146 23 13C22.9988 14.1479 22.7161 15.278 22.1767 16.2912C21.6372 17.3045 20.8576 18.17 19.906 18.812C22.5681 19.9538 24.6509 22.2141 25.5364 25H23.422C22.2392 22.0637 19.3681 20 16 20C12.6318 20 9.76083 22.0637 8.57801 25H6.46368C7.34918 22.2145 9.43197 19.9548 12.094 18.813C10.23 17.552 8.99999 15.41 8.99999 13ZM21 13C21 10.227 18.773 8 16 8C13.227 8 11 10.227 11 13C11 15.773 13.227 18 16 18C18.773 18 21 15.773 21 13Z" fill="#0F0F0F"/>
</svg>
