<svg width="36" height="36" viewBox="0 0 36 36" fill="inherit" xmlns="http://www.w3.org/2000/svg">
<rect width="36" height="36" fill="white"/>
<path d="M0 0V36H36V0H0ZM15.9807 9.62622C17 9.61566 17.997 9.72867 18.4834 9.74268C20.2864 9.79458 20.6048 10.7065 20.5817 11.4565C20.548 12.5551 19.8412 17.2018 21.1509 17.655C23.0591 16.6346 24.3388 13.4653 25.2707 11.4565C25.7421 10.4405 25.6676 10.39 26.7538 10.3887L31.0693 10.3821C32.1085 10.3808 32.068 10.3443 32.4009 10.7688C33.1752 11.756 29.9575 15.8626 28.9182 16.9981C27.0003 19.0935 28.1193 19.9049 28.4282 20.1929C29.8595 21.5274 31.2425 22.9112 32.102 24.1875C32.7854 25.2022 32.5031 26.1469 31.634 26.1826L27.0065 26.3738C25.471 26.4369 23.0833 23.6842 22.7021 23.0845C22.3939 22.5898 20.9085 21.9697 20.7685 23.2338L20.573 24.9982C20.4309 26.2594 19.4997 26.23 18.7646 26.2616C13.6746 26.4806 11.9411 24.5427 9.37788 21.6825C7.49925 19.0257 5.70648 16.3536 4.22091 13.1527C3.77625 12.1946 3.54072 11.4917 3.48042 10.7467C4.2279 10.1625 6.85161 10.4141 8.61324 10.3754C9.09507 10.3648 9.42018 10.6409 9.67452 11.1906C10.667 13.336 11.7493 15.4427 13.1814 17.3056C13.805 17.88 14.3564 18.0912 14.6316 16.9233C14.7913 16.9086 14.7785 14.9743 14.7876 13.5153C14.7938 12.5134 14.6761 11.312 12.9792 10.7577C13.3225 9.85803 14.6702 9.63981 15.9807 9.62622Z" fill="inherit"/>
</svg>
