<svg width="36" height="36" viewBox="0 0 36 36" fill="inherit" xmlns="http://www.w3.org/2000/svg">
<path d="M0 0V36H36V0H0Z" fill="inherit"/>
<path fill-rule="evenodd" clip-rule="evenodd" d="M28.9988 18C28.9988 17.8146 28.999 17.6294 28.9992 17.4443C29.0007 16.1133 29.0021 14.7906 28.9272 13.4594C28.8419 11.6982 28.4402 10.1352 27.1523 8.84732C25.8617 7.55669 24.3014 7.15767 22.5403 7.07237C21.2066 6.99747 19.8836 6.99894 18.5544 7.00041C18.3697 7.00061 18.1848 7.00082 17.9998 7.00082C17.8144 7.00082 17.6292 7.00061 17.4442 7.00041C16.1132 6.99894 14.7905 6.99747 13.4593 7.07237C11.6982 7.15767 10.1351 7.55945 8.84728 8.84732C7.55668 10.1379 7.15767 11.6982 7.07237 13.4594C6.99747 14.7931 6.99894 16.1161 7.00041 17.4454C7.00061 17.6301 7.00082 17.815 7.00082 18C7.00082 18.185 7.00061 18.3699 7.00041 18.5547C6.99894 19.8844 6.99747 21.2093 7.07237 22.5406C7.15767 24.3018 7.55944 25.8648 8.84728 27.1527C10.1379 28.4433 11.6982 28.8423 13.4593 28.9276C14.7929 29.0025 16.116 29.0011 17.4452 28.9996C17.6299 28.9994 17.8148 28.9992 17.9998 28.9992C18.1852 28.9992 18.3704 28.9994 18.5554 28.9996C19.8864 29.0011 21.2091 29.0025 22.5403 28.9276C24.3014 28.8423 25.8645 28.4406 27.1523 27.1527C28.4429 25.8621 28.8419 24.3018 28.9272 22.5406C29.0033 21.2313 29.0013 19.9302 28.9994 18.6213C28.9991 18.4144 28.9988 18.2073 28.9988 18ZM18 22C20.2091 22 22 20.2091 22 18C22 15.7909 20.2091 14 18 14C15.7909 14 14 15.7909 14 18C14 20.2091 15.7909 22 18 22ZM18 24C21.3137 24 24 21.3137 24 18C24 14.6863 21.3137 12 18 12C14.6863 12 12 14.6863 12 18C12 21.3137 14.6863 24 18 24ZM24.5 13C25.3284 13 26 12.3284 26 11.5C26 10.6716 25.3284 10 24.5 10C23.6716 10 23 10.6716 23 11.5C23 12.3284 23.6716 13 24.5 13Z" fill="white"/>
</svg>
