<svg width="36" height="36" viewBox="0 0 36 36" fill="none" xmlns="http://www.w3.org/2000/svg">
<path d="M0 0V36H36V0H0Z" fill="#808080"/>
<path d="M30.413 11.8186C30.2544 11.2736 29.9457 10.7802 29.5194 10.3908C29.0811 9.98939 28.544 9.70228 27.9586 9.55653C25.7679 9 17.9911 9 17.9911 9C14.3321 8.95987 11.6741 9.13635 8.03758 9.52842C7.45221 9.68494 6.91605 9.97846 6.47679 10.3829C6.04518 10.7831 5.73256 11.2767 5.56924 11.8175C5.17694 13.8544 4.98633 15.9227 4.99999 17.9944C4.98599 20.0643 5.17613 22.1318 5.56924 24.1713C5.72906 24.7099 6.04051 25.2012 6.47329 25.5981C6.90606 25.995 7.44499 26.2816 8.03758 26.4334C10.2574 26.9888 17.9911 26.9888 17.9911 26.9888C21.6547 27.029 24.3174 26.8525 27.9586 26.4604C28.544 26.3147 29.0811 26.0276 29.5194 25.6262C29.951 25.2293 30.2578 24.7357 30.4118 24.1983C30.8144 22.1622 31.0101 20.093 30.9962 18.0203C31.0265 15.9387 30.831 13.8599 30.413 11.8175V11.8186ZM15 22V14L22.5032 17.9955L15 22Z" fill="white"/>
</svg>
